<?xml version="1.0" standalone="no"?>
<!DOCTYPE svg PUBLIC "-//W3C//DTD SVG 20010904//EN"
 "http://www.w3.org/TR/2001/REC-SVG-20010904/DTD/svg10.dtd">
<svg version="1.0" xmlns="http://www.w3.org/2000/svg"
 width="1676.000000pt" height="282.000000pt" viewBox="0 0 1676.000000 282.000000"
 preserveAspectRatio="xMidYMid meet">
<metadata>
Created by potrace 1.13, written by Peter Selinger 2001-2015
</metadata>
<g transform="translate(0.000000,282.000000) scale(0.100000,-0.100000)"
fill="#000000" stroke="none">
<path d="M432 1417 c-232 -622 -422 -1135 -422 -1139 0 -12 2102 -10 2221 2
279 29 467 117 589 278 61 81 166 291 210 422 28 83 32 104 28 172 -4 63 -11
91 -39 147 l-34 69 71 68 c83 81 164 193 196 273 20 50 23 72 22 211 -1 186
-17 271 -74 386 -42 86 -93 141 -172 188 -95 56 -95 56 -1178 56 l-995 0 -423
-1133z m2520 1016 c153 -72 227 -218 244 -480 8 -112 -4 -178 -44 -258 -54
-108 -145 -213 -242 -278 l-50 -34 30 -28 c17 -16 43 -54 57 -85 22 -45 27
-69 27 -135 1 -74 -4 -90 -52 -210 -143 -356 -287 -488 -602 -551 -76 -15
-197 -18 -1137 -21 -579 -2 -1053 -1 -1053 3 0 4 176 482 392 1061 l392 1054
985 -3 986 -3 67 -32z"/>
<path d="M1382 1633 c-61 -164 -110 -299 -108 -301 2 -2 90 71 195 162 l192
166 330 0 329 0 50 76 c56 86 56 90 -8 157 l-36 37 -416 0 -416 0 -112 -297z
m940 195 c2 -7 2 -29 -2 -48 l-5 -35 -340 -3 -341 -2 -75 -63 c-42 -34 -83
-68 -93 -76 -15 -12 -14 -7 4 40 12 30 33 82 46 117 13 35 26 67 29 73 10 15
772 12 777 -3z"/>
<path d="M1161 1033 c-28 -71 -51 -131 -51 -135 0 -5 187 -8 416 -8 l416 0 61
35 c83 47 89 53 120 106 18 30 27 60 27 87 l0 42 -469 0 -469 0 -51 -127z
m889 42 c0 -16 -36 -57 -65 -75 -31 -19 -49 -20 -394 -20 -198 0 -361 2 -361
4 0 2 9 25 20 50 l19 46 391 0 c214 0 390 -2 390 -5z"/>
<path d="M3586 2533 c2 -10 62 -422 134 -915 135 -934 154 -1034 219 -1175 39
-83 82 -136 126 -157 30 -15 78 -16 414 -14 l379 3 70 48 c38 26 107 87 153
135 46 48 413 513 814 1034 402 520 731 945 733 944 1 -2 -180 -486 -403
-1077 -223 -590 -405 -1077 -405 -1081 0 -5 218 -8 484 -8 l484 0 178 475 c97
261 179 473 181 471 4 -3 183 -923 183 -938 0 -5 89 -8 198 -8 l197 0 425 454
c234 249 426 452 428 451 1 -1 -72 -202 -163 -446 -91 -243 -165 -447 -165
-451 0 -4 217 -8 483 -8 l483 0 423 1121 c233 616 426 1129 428 1140 5 19 -8
19 -573 18 l-579 -1 -460 -483 c-399 -419 -461 -480 -467 -461 -4 11 -46 221
-93 466 -47 245 -88 453 -91 463 -5 16 -65 17 -1072 17 l-1067 0 -514 -652
c-283 -358 -516 -647 -518 -642 -3 11 -173 1269 -173 1284 0 7 -143 10 -439
10 -413 0 -439 -1 -435 -17z m895 -763 c53 -382 98 -702 100 -711 3 -11 212
248 567 697 l563 714 415 0 c228 0 414 -2 414 -6 0 -3 -327 -428 -726 -944
-744 -965 -858 -1101 -956 -1148 -43 -21 -56 -22 -395 -22 l-351 0 -32 26
c-48 41 -92 141 -135 311 -11 44 -265 1748 -265 1779 0 2 158 3 352 2 l352 -3
97 -695z m3253 683 c3 -10 50 -247 106 -528 55 -280 102 -511 104 -513 2 -1
230 236 507 527 l504 530 498 1 c273 0 497 -3 497 -7 0 -5 -179 -482 -397
-1060 l-398 -1053 -392 0 c-216 0 -393 3 -393 8 0 4 99 270 220 592 120 321
218 585 217 586 -1 1 -254 -266 -562 -592 l-560 -593 -141 -1 -141 0 -46 237
c-25 131 -76 397 -113 591 -38 193 -71 349 -75 345 -4 -5 -98 -253 -209 -553
-111 -300 -209 -562 -217 -582 l-15 -38 -395 0 c-372 0 -395 1 -390 18 3 12
728 1943 782 2085 7 16 40 17 505 17 466 0 499 -1 504 -17z"/>
<path d="M10392 1417 c-232 -622 -422 -1135 -422 -1140 0 -4 214 -6 476 -5
l476 3 145 388 145 387 397 0 396 0 320 296 c176 162 345 320 375 350 l55 54
-592 0 -591 0 -77 -72 c-44 -41 -75 -64 -71 -53 3 11 23 65 45 120 l39 100
619 5 c529 4 623 7 639 20 81 64 129 109 211 200 111 123 278 341 323 423 l32
57 -1259 0 -1258 0 -423 -1133z m2794 1026 c-48 -92 -267 -356 -358 -434 -102
-87 -26 -79 -739 -79 l-637 0 -87 -237 c-49 -131 -101 -271 -116 -310 -15 -40
-25 -73 -23 -73 3 0 90 81 194 180 l189 180 473 0 c465 0 472 0 453 -19 -11
-11 -143 -132 -294 -270 l-273 -251 -407 0 -406 0 -145 -387 -146 -388 -387
-3 c-213 -1 -387 1 -387 5 0 4 176 481 392 1060 l391 1053 1164 0 1164 0 -15
-27z"/>
<path d="M12927 1418 c-235 -623 -427 -1136 -427 -1140 0 -5 218 -8 484 -8
l484 0 178 475 c97 261 179 473 181 471 4 -3 183 -923 183 -938 0 -5 89 -8
198 -8 l197 0 425 454 c234 249 426 452 428 451 1 -1 -72 -202 -163 -446 -91
-243 -165 -447 -165 -451 0 -4 217 -8 483 -8 l483 0 423 1121 c233 616 426
1129 428 1140 5 19 -8 19 -573 18 l-579 -1 -460 -483 c-399 -419 -461 -480
-467 -461 -4 11 -46 221 -93 466 -47 245 -88 453 -91 463 -5 16 -41 17 -568
17 l-562 0 -427 -1132z m1487 1035 c3 -10 50 -247 106 -528 55 -280 102 -511
104 -513 2 -1 230 236 507 527 l504 530 498 1 c273 0 497 -3 497 -7 0 -5 -179
-482 -397 -1060 l-398 -1053 -392 0 c-216 0 -393 3 -393 8 0 4 99 270 220 592
120 321 218 585 217 586 -1 1 -254 -266 -562 -592 l-560 -593 -141 -1 -141 0
-46 237 c-25 131 -76 397 -113 591 -38 193 -71 349 -75 345 -4 -5 -98 -253
-209 -553 -111 -300 -209 -562 -217 -582 l-15 -38 -395 0 c-372 0 -395 1 -390
18 3 12 728 1943 782 2085 7 16 40 17 505 17 466 0 499 -1 504 -17z"/>
<path d="M9711 869 c-108 -21 -247 -116 -306 -209 -67 -106 -63 -239 9 -318
53 -59 178 -86 285 -63 129 28 261 130 316 246 40 85 41 171 2 237 -34 59 -69
84 -143 103 -64 16 -96 17 -163 4z m184 -84 c152 -73 74 -318 -130 -411 -86
-39 -193 -44 -254 -12 -65 33 -84 65 -84 135 0 36 7 71 18 92 24 48 111 138
160 167 91 53 212 65 290 29z"/>
</g>
</svg>
